HIERARCHY
ROOT hip
{
  OFFSET 0 0 0
  CHANNELS 6 Xposition Yposition Zposition Zrotation Yrotation Xrotation
  JOINT abdomen
  {
    OFFSET 0 20.6881 -0.73152
    CHANNELS 3 Zrotation Xrotation Yrotation
    JOINT chest
    {
      OFFSET 0 11.7043 -0.48768
      CHANNELS 3 Zrotation Xrotation Yrotation
      JOINT neck
      {
        OFFSET 0 22.1894 -2.19456
        CHANNELS 3 Zrotation Xrotation Yrotation
        JOINT head
        {
          OFFSET -0.24384 7.07133 1.2192
          CHANNELS 3 Zrotation Xrotation Yrotation
          JOINT leftEye
          {
            OFFSET 4.14528 8.04674 8.04672
            CHANNELS 3 Zrotation Xrotation Yrotation
            End Site
            {
              OFFSET 1 0 0
            }
          }
          JOINT rightEye
          {
            OFFSET -3.6576 8.04674 8.04672
            CHANNELS 3 Zrotation Xrotation Yrotation
            End Site
            {
              OFFSET 1 0 0
            }
          }
        }
      }
      JOINT rCollar
      {
        OFFSET -2.68224 19.2634 -4.8768
        CHANNELS 3 Zrotation Xrotation Yrotation
        JOINT rShldr
        {
          OFFSET -8.77824 -1.95073 1.46304
          CHANNELS 3 Zrotation Xrotation Yrotation
          JOINT rForeArm
          {
            OFFSET -28.1742 -1.7115 0.48768
            CHANNELS 3 Zrotation Xrotation Yrotation
            JOINT rHand
            {
              OFFSET -22.5879 0.773209 7.07136
              CHANNELS 3 Zrotation Xrotation Yrotation
              JOINT rThumb1
              {
                OFFSET -1.2192 -0.487915 3.41376
                CHANNELS 3 Zrotation Xrotation Yrotation
                JOINT rThumb2
                {
                  OFFSET -3.37035 -0.52449 3.41376
                  CHANNELS 3 Zrotation Xrotation Yrotation
                  End Site
                  {
                    OFFSET -1.78271 -1.18214 1.43049
                  }
                }
              }
              JOINT rIndex1
              {
                OFFSET -7.75947 0.938293 5.60832
                CHANNELS 3 Zrotation Xrotation Yrotation
                JOINT rIndex2
                {
                  OFFSET -2.54057 -0.884171 1.56538
                  CHANNELS 3 Zrotation Xrotation Yrotation
                  End Site
                  {
                    OFFSET -1.62519 -0.234802 1.16502
                  }
                }
              }
              JOINT rMid1
              {
                OFFSET -8.24714 1.18213 3.41376
                CHANNELS 3 Zrotation Xrotation Yrotation
                JOINT rMid2
                {
                  OFFSET -3.10165 -0.590103 1.0647
                  CHANNELS 3 Zrotation Xrotation Yrotation
                  End Site
                  {
                    OFFSET -2.48547 -0.328903 0.83742
                  }
                }
              }
              JOINT rRing1
              {
                OFFSET -8.82822 0.546677 1.51678
                CHANNELS 3 Zrotation Xrotation Yrotation
                JOINT rRing2
                {
                  OFFSET -2.60934 -0.819778 -0.0198488
                  CHANNELS 3 Zrotation Xrotation Yrotation
                  End Site
                  {
                    OFFSET -2.33842 -0.294052 0.168128
                  }
                }
              }
              JOINT rPinky1
              {
                OFFSET -8.27202 -0.0477905 -0.4584
                CHANNELS 3 Zrotation Xrotation Yrotation
                JOINT rPinky2
                {
                  OFFSET -1.82734 -0.647385 -0.700984
                  CHANNELS 3 Zrotation Xrotation Yrotation
                  End Site
                  {
                    OFFSET -1.69225 -0.51767 -0.607171
                  }
                }
              }
            }
          }
        }
      }
      JOINT lCollar
      {
        OFFSET 2.68224 19.2634 -4.8768
        CHANNELS 3 Zrotation Xrotation Yrotation
        JOINT lShldr
        {
          OFFSET 8.77824 -1.95073 1.46304
          CHANNELS 3 Zrotation Xrotation Yrotation
          JOINT lForeArm
          {
            OFFSET 28.1742 -1.7115 0.48768
            CHANNELS 3 Zrotation Xrotation Yrotation
            JOINT lHand
            {
              OFFSET 22.5879 0.773209 7.07136
              CHANNELS 3 Zrotation Xrotation Yrotation
              JOINT lThumb1
              {
                OFFSET 1.2192 -0.487915 3.41376
                CHANNELS 3 Zrotation Xrotation Yrotation
                JOINT lThumb2
                {
                  OFFSET 3.37035 -0.52449 3.41376
                  CHANNELS 3 Zrotation Xrotation Yrotation
                  End Site
                  {
                    OFFSET 1.78271 -1.18214 1.43049
                  }
                }
              }
              JOINT lIndex1
              {
                OFFSET 7.75947 0.938293 5.60832
                CHANNELS 3 Zrotation Xrotation Yrotation
                JOINT lIndex2
                {
                  OFFSET 2.54057 -0.884171 1.56538
                  CHANNELS 3 Zrotation Xrotation Yrotation
                  End Site
                  {
                    OFFSET 1.62519 -0.234802 1.16502
                  }
                }
              }
              JOINT lMid1
              {
                OFFSET 8.24714 1.18213 3.41376
                CHANNELS 3 Zrotation Xrotation Yrotation
                JOINT lMid2
                {
                  OFFSET 3.10165 -0.590103 1.0647
                  CHANNELS 3 Zrotation Xrotation Yrotation
                  End Site
                  {
                    OFFSET 2.48547 -0.328903 0.83742
                  }
                }
              }
              JOINT lRing1
              {
                OFFSET 8.82822 0.546677 1.51678
                CHANNELS 3 Zrotation Xrotation Yrotation
                JOINT lRing2
                {
                  OFFSET 2.60934 -0.819778 -0.0198488
                  CHANNELS 3 Zrotation Xrotation Yrotation
                  End Site
                  {
                    OFFSET 2.33842 -0.294052 0.168128
                  }
                }
              }
              JOINT lPinky1
              {
                OFFSET 8.27202 -0.0477905 -0.4584
                CHANNELS 3 Zrotation Xrotation Yrotation
                JOINT lPinky2
                {
                  OFFSET 1.82734 -0.647385 -0.700984
                  CHANNELS 3 Zrotation Xrotation Yrotation
                  End Site
                  {
                    OFFSET 1.69225 -0.51767 -0.607171
                  }
                }
              }
            }
          }
        }
      }
    }
  }
  JOINT rButtock
  {
    OFFSET -8.77824 4.35084 1.2192
    CHANNELS 3 Zrotation Xrotation Yrotation
    JOINT rThigh
    {
      OFFSET 0 -1.70687 -2.19456
      CHANNELS 3 Zrotation Xrotation Yrotation
      JOINT rShin
      {
        OFFSET 0 -36.8199 0.73152
        CHANNELS 3 Zrotation Xrotation Yrotation
        JOINT rFoot
        {
          OFFSET 0.73152 -45.1104 -5.12064
          CHANNELS 3 Zrotation Xrotation Yrotation
          End Site
          {
            OFFSET -1.1221 -3.69964 12.103
          }
        }
      }
    }
  }
  JOINT lButtock
  {
    OFFSET 8.77824 4.35084 1.2192
    CHANNELS 3 Zrotation Xrotation Yrotation
    JOINT lThigh
    {
      OFFSET 0 -1.70687 -2.19456
      CHANNELS 3 Zrotation Xrotation Yrotation
      JOINT lShin
      {
        OFFSET 0 -36.8199 0.73152
        CHANNELS 3 Zrotation Xrotation Yrotation
        JOINT lFoot
        {
          OFFSET -0.73152 -45.1104 -5.12064
          CHANNELS 3 Zrotation Xrotation Yrotation
          End Site
          {
            OFFSET 1.1221 -3.69964 12.103
          }
        }
      }
    }
  }
}
MOTION
Frames:	9
Frame Time:	0.00833333
-106.927 85.0966 3.30314 0.0 0.0 0.0 0.283893 -0.00291391 0.00816071 0.078459 -0.00473297 0.0135944 -3.59292e-15 7.95139e-16 6.21202e-17 -1.07251e-14 9.54166e-15 1.94126e-16 -0.0 0.0 0.0 -0.0 0.0 0.0 -1.7904e-15 7.76503e-18 1.49089e-16 -3.5424e-14 6.83322e-17 1.59028e-15 -6.43764e-13 1.96598e-13 2.22639e-14 -7.3646e-12 -1.7011e-13 1.30403e-13 -1.73751e-11 5.59846e-14 3.33958e-13 -3.00149e-11 9.85972e-14 5.61368e-13 -1.73714e-11 5.40694e-14 3.21236e-13 7.73091 5.47488 0.417314 -1.73743e-11 5.56597e-14 3.30778e-13 2.90554 0.965183 0.102902 -1.73708e-11 5.56597e-14 3.21236e-13 10.2786 0.731801 0.0259123 -1.73821e-11 5.92378e-14 3.24417e-13 2.22167 -0.733487 -0.20892 -1.88723e-15 7.5709e-18 -4.96962e-17 -3.89451e-14 -2.48481e-17 -3.97569e-16 -6.461e-13 -1.87852e-13 2.8625e-14 -7.36957e-12 2.15135e-13 1.20861e-13 -1.73865e-11 5.88246e-14 3.05333e-13 -3.00161e-11 1.01778e-13 5.51826e-13 -1.73913e-11 5.725e-14 3.14875e-13 -7.73091 5.47488 -0.417314 -1.73869e-11 5.82439e-14 3.14875e-13 -2.90554 0.965183 -0.102902 -1.73905e-11 5.87409e-14 3.20441e-13 -10.2786 0.731801 -0.0259123 -1.73847e-11 6.12257e-14 3.24417e-13 -2.22167 -0.733487 0.20892 -2.03217e-16 0.0 -3.88251e-19 0.66892 -3.85853 -0.0572482 -0.00341789 1.43794 -0.0274404 -0.455262 2.42105 0.100331 2.03217e-16 0.0 3.88251e-19 -0.234818 -2.72419 0.0299386 0.00662642 -0.616661 0.0579724 0.449432 3.34127 -0.11794
-100.909 83.6767 -2.85201 -161.938 83.7605 -157.675 1.86641 0.186874 0.358659 0.149308 -0.726041 0.132284 0.0130256 -0.35633 0.23162 0.117409 2.32405 0.708688 -0.0 0.0 0.0 -0.0 0.0 0.0 4.12335e-15 -3.19172e-13 4.31638e-14 20.3298 6.39742 -0.114586 -3.2826 -1.34371 5.27651 0.00524821 1.6232 0.227808 -1.13975e-09 -6.72384e-10 1.85239e-09 -1.95858e-09 -1.16201e-09 3.20886e-09 -1.13974e-09 -6.72385e-10 1.85238e-09 7.73091 5.47488 0.417314 -1.13975e-09 -6.72385e-10 1.85239e-09 2.90554 0.965183 0.102902 -1.13974e-09 -6.72384e-10 1.85238e-09 10.2786 0.731801 0.0259123 -1.13975e-09 -6.72381e-10 1.85238e-09 2.22167 -0.733487 -0.20892 4.03874e-15 -3.19171e-13 4.2981e-14 -21.9856 11.0223 -0.938352 4.91333 -2.39041 -7.49505 -0.0825002 -6.37883 0.876547 -1.92512e-10 2.36708e-10 -1.13418e-09 -3.19091e-10 4.05955e-10 -1.96246e-09 -1.92516e-10 2.36708e-10 -1.13416e-09 -7.73091 5.47488 -0.417314 -1.92512e-10 2.36709e-10 -1.13417e-09 -2.90554 0.965183 -0.102902 -1.92516e-10 2.36709e-10 -1.13417e-09 -10.2786 0.731801 -0.0259123 -1.92511e-10 2.3671e-10 -1.13417e-09 -2.22167 -0.733487 0.20892 -2.03217e-16 0.0 -3.88251e-19 2.28496 -5.72134 3.1457 0.0105187 5.68877 0.0512343 -0.718418 0.850749 -6.1294 2.03217e-16 0.0 3.88251e-19 1.89731 -7.14053 -3.57815 -0.00465739 6.18859 -0.0746261 0.791721 -0.644069 3.15097
-100.91 83.6761 -3.07016 -160.167 83.7705 -155.885 3.5422 0.383085 0.723591 0.22777 -1.4811 0.256173 0.0278728 -0.723413 0.477513 0.176103 4.77991 1.46542 -0.0 0.0 0.0 -0.0 0.0 0.0 9.7673e-15 -6.78624e-13 8.88971e-14 41.8464 13.175 -0.23034 -6.49374 -2.73148 10.8781 -0.003284 3.31271 0.465547 -2.39946e-09 -1.43124e-09 3.94848e-09 -4.12298e-09 -2.47342e-09 6.83984e-09 -2.39946e-09 -1.43124e-09 3.94847e-09 7.73091 5.47488 0.417314 -2.39946e-09 -1.43125e-09 3.94848e-09 2.90554 0.965183 0.102902 -2.39946e-09 -1.43125e-09 3.94848e-09 10.2786 0.731801 0.0259123 -2.39947e-09 -1.43124e-09 3.94848e-09 2.22167 -0.733487 -0.20892 9.69559e-15 -6.78621e-13 8.87325e-14 -44.8055 22.6833 -2.06025 9.43818 -4.7847 -15.4669 0.0476186 -13.1119 1.83932 -3.85992e-10 4.98752e-10 -2.42311e-09 -6.38006e-10 8.5528e-10 -4.19261e-09 -3.85995e-10 4.98755e-10 -2.42309e-09 -7.73091 5.47488 -0.417314 -3.85992e-10 4.98755e-10 -2.42311e-09 -2.90554 0.965183 -0.102902 -3.85997e-10 4.98756e-10 -2.42311e-09 -10.2786 0.731801 -0.0259123 -3.85992e-10 4.98755e-10 -2.42311e-09 -2.22167 -0.733487 0.20892 -2.03217e-16 0.0 -3.88251e-19 4.22229 -7.65896 6.52739 0.0122183 10.1787 0.135386 -1.35283 -0.737168 -12.6848 2.03217e-16 0.0 3.88251e-19 3.54237 -11.743 -7.49745 0.0184434 13.3828 -0.219808 1.64699 -4.82413 6.62444
-100.92 83.6721 -3.3079 -158.675 83.8836 -154.344 5.02447 0.566363 1.0597 0.299978 -2.16862 0.369896 0.0477208 -1.06892 0.694968 0.178704 6.96785 2.14013 -0.0 0.0 0.0 -0.0 0.0 0.0 1.59508e-14 -9.57531e-13 1.29193e-13 61.0699 19.1919 -0.361721 -9.11438 -3.8946 15.8628 -0.023097 4.8693 0.685626 -3.38449e-09 -2.01726e-09 5.55649e-09 -5.81572e-09 -3.48622e-09 9.62545e-09 -3.38449e-09 -2.01726e-09 5.55649e-09 7.73091 5.47488 0.417314 -3.38449e-09 -2.01727e-09 5.5565e-09 2.90554 0.965183 0.102902 -3.38448e-09 -2.01726e-09 5.5565e-09 10.2786 0.731801 0.0259123 -3.3845e-09 -2.01726e-09 5.5565e-09 2.22167 -0.733487 -0.20892 1.58907e-14 -9.57527e-13 1.29042e-13 -64.697 33.0278 -3.29623 12.9067 -6.68145 -22.6276 0.366864 -19.118 2.76603 -5.42763e-10 7.10005e-10 -3.40315e-09 -8.97239e-10 1.21766e-09 -5.88848e-09 -5.42765e-10 7.10009e-10 -3.40312e-09 -7.73091 5.47488 -0.417314 -5.42762e-10 7.1001e-10 -3.40314e-09 -2.90554 0.965183 -0.102902 -5.42768e-10 7.1001e-10 -3.40314e-09 -10.2786 0.731801 -0.0259123 -5.42764e-10 7.10008e-10 -3.40315e-09 -2.22167 -0.733487 0.20892 -2.03217e-16 0.0 -3.88251e-19 6.14575 -9.34147 9.63322 0.00245782 14.1904 0.21435 -2.25281 -2.15647 -18.6003 2.03217e-16 0.0 3.88251e-19 4.44698 -15.7283 -11.1327 0.0717533 19.7987 -0.359779 2.84458 -8.49388 9.79628
-100.934 83.6904 -3.54727 -157.796 84.0118 -153.394 6.02738 0.717378 1.32372 0.350573 -2.6873 0.458001 0.0742757 -1.36055 0.841237 0.165377 8.4902 2.59622 -0.0 0.0 0.0 -0.0 0.0 0.0 2.34834e-14 -1.03507e-12 1.55897e-13 74.5137 23.3073 -0.518615 -10.78 -4.62899 19.2724 -0.0457629 6.09388 0.859716 -3.6828e-09 -2.17118e-09 5.94432e-09 -6.32934e-09 -3.7525e-09 1.02976e-08 -3.68279e-09 -2.17118e-09 5.94431e-09 7.73091 5.47488 0.417314 -3.6828e-09 -2.17118e-09 5.94432e-09 2.90554 0.965183 0.102902 -3.68279e-09 -2.17118e-09 5.94432e-09 10.2786 0.731801 0.0259123 -3.6828e-09 -2.17118e-09 5.94433e-09 2.22167 -0.733487 -0.20892 2.34313e-14 -1.03507e-12 1.55748e-13 -78.2265 40.1189 -4.35854 15.0168 -7.80489 -27.6232 0.717246 -23.324 3.47404 -6.07761e-10 7.94277e-10 -3.61093e-09 -1.00727e-09 1.36268e-09 -6.24862e-09 -6.07763e-10 7.94282e-10 -3.6109e-09 -7.73091 5.47488 -0.417314 -6.0776e-10 7.94282e-10 -3.61093e-09 -2.90554 0.965183 -0.102902 -6.07767e-10 7.94282e-10 -3.61093e-09 -10.2786 0.731801 -0.0259123 -6.07763e-10 7.94279e-10 -3.61094e-09 -2.22167 -0.733487 0.20892 -2.03217e-16 0.0 -3.88251e-19 7.59968 -10.4738 11.9834 -0.0108068 17.0062 0.275096 -3.16233 -3.28526 -22.8989 2.03217e-16 0.0 3.88251e-19 4.73159 -18.3981 -13.7526 0.129301 24.2696 -0.46702 3.93584 -11.0102 12.0926
-100.934 83.7223 -3.77868 -157.15 84.1652 -152.741 6.36605 0.843767 1.49757 0.368311 -2.98157 0.513604 0.111752 -1.57978 0.886706 0.186535 9.08511 2.73314 -0.0 0.0 0.0 -0.0 0.0 0.0 3.83846e-14 -7.68402e-13 1.70411e-13 79.8365 24.7801 -0.721667 -11.3253 -4.85137 20.4496 -0.0615711 6.87506 0.971174 -2.98593e-09 -1.68718e-09 4.44904e-09 -5.13478e-09 -2.91694e-09 7.70879e-09 -2.98592e-09 -1.68717e-09 4.44904e-09 7.73091 5.47488 0.417314 -2.98593e-09 -1.68718e-09 4.44905e-09 2.90554 0.965183 0.102902 -2.98592e-09 -1.68718e-09 4.44904e-09 10.2786 0.731801 0.0259123 -2.98593e-09 -1.68718e-09 4.44905e-09 2.22167 -0.733487 -0.20892 3.8334e-14 -7.68398e-13 1.70244e-13 -83.4786 42.6683 -4.74356 15.7529 -8.16988 -29.5206 0.888743 -25.0056 3.77459 -5.93346e-10 6.96702e-10 -2.60781e-09 -9.94787e-10 1.19618e-09 -4.51544e-09 -5.93349e-10 6.96706e-10 -2.60778e-09 -7.73091 5.47488 -0.417314 -5.93346e-10 6.96706e-10 -2.60781e-09 -2.90554 0.965183 -0.102902 -5.93353e-10 6.96706e-10 -2.60781e-09 -10.2786 0.731801 -0.0259123 -5.93348e-10 6.96703e-10 -2.60782e-09 -2.22167 -0.733487 0.20892 -2.03217e-16 0.0 -3.88251e-19 8.21229 -10.8691 13.2679 -0.0169754 18.1446 0.307252 -3.83195 -4.16402 -24.9546 2.03217e-16 0.0 3.88251e-19 4.71743 -19.366 -14.7593 0.156845 26.0253 -0.512917 4.44946 -12.0149 13.0777
-100.921 83.7583 -3.99257 -156.105 84.3659 -151.715 6.23042 0.9516 1.60649 0.361887 -3.11498 0.545777 0.155953 -1.74715 0.8602 0.244538 9.01824 2.63963 -0.0 0.0 0.0 -0.0 0.0 0.0 5.82883e-14 -2.58829e-13 1.75893e-13 79.3432 24.3643 -0.949344 -11.1155 -4.73167 20.0278 -0.0695222 7.33857 1.03733 -1.57983e-09 -7.4909e-10 1.61702e-09 -2.72281e-09 -1.29705e-09 2.80504e-09 -1.57983e-09 -7.49084e-10 1.61702e-09 7.73091 5.47488 0.417314 -1.57983e-09 -7.49087e-10 1.61702e-09 2.90554 0.965183 0.102902 -1.57982e-09 -7.49087e-10 1.61702e-09 10.2786 0.731801 0.0259123 -1.57983e-09 -7.49087e-10 1.61703e-09 2.22167 -0.733487 -0.20892 5.82344e-14 -2.58826e-13 1.75695e-13 -82.9958 41.9849 -4.50177 15.6159 -8.08138 -29.1875 0.874142 -24.889 3.7528 -5.19872e-10 4.6943e-10 -7.45946e-10 -8.90685e-10 8.07503e-10 -1.29765e-09 -5.19875e-10 4.69433e-10 -7.45916e-10 -7.73091 5.47488 -0.417314 -5.19872e-10 4.69432e-10 -7.4594e-10 -2.90554 0.965183 -0.102902 -5.19879e-10 4.69432e-10 -7.45944e-10 -10.2786 0.731801 -0.0259123 -5.19873e-10 4.6943e-10 -7.45955e-10 -2.22167 -0.733487 0.20892 -2.03217e-16 0.0 -3.88251e-19 8.17295 -10.7571 13.7788 -0.0148746 18.0851 0.317721 -4.25074 -4.90279 -25.4019 2.03217e-16 0.0 3.88251e-19 4.62213 -19.1639 -14.5594 0.153483 25.8413 -0.509842 4.44466 -11.9684 13.0953
-100.917 83.7713 -4.18882 -155.193 84.502 -150.794 5.89733 1.01923 1.67218 0.34556 -3.16496 0.562966 0.195824 -1.88905 0.80662 0.314441 8.68417 2.45987 -0.0 0.0 0.0 -0.0 0.0 0.0 7.14247e-14 2.48215e-13 1.66818e-13 76.5173 23.1618 -1.14714 -10.6037 -4.47624 18.9788 -0.0732058 7.64104 1.08043 5.59379e-11 3.17874e-10 -1.46997e-09 8.4252e-11 5.45826e-10 -2.54112e-09 5.59417e-11 3.17882e-10 -1.46997e-09 7.73091 5.47488 0.417314 5.59391e-11 3.1788e-10 -1.46997e-09 2.90554 0.965183 0.102902 5.59476e-11 3.1788e-10 -1.46997e-09 10.2786 0.731801 0.0259123 5.59416e-11 3.17879e-10 -1.46997e-09 2.22167 -0.733487 -0.20892 7.13687e-14 2.48216e-13 1.66587e-13 -80.1729 40.039 -4.03718 15.1187 -7.80266 -27.9487 0.786134 -24.0809 3.60628 -3.44263e-10 1.96797e-10 1.25182e-09 -6.11734e-10 3.41505e-10 2.15666e-09 -3.44267e-10 1.96799e-10 1.25185e-09 -7.73091 5.47488 -0.417314 -3.44264e-10 1.96798e-10 1.25183e-09 -2.90554 0.965183 -0.102902 -3.4427e-10 1.96797e-10 1.25182e-09 -10.2786 0.731801 -0.0259123 -3.44263e-10 1.96797e-10 1.25181e-09 -2.22167 -0.733487 0.20892 -2.03217e-16 0.0 -3.88251e-19 7.85104 -10.4811 13.9311 -0.00927774 17.5518 0.318291 -4.50265 -5.51832 -25.146 2.03217e-16 0.0 3.88251e-19 4.48737 -18.5198 -13.8697 0.137594 24.8691 -0.486489 4.21894 -11.4871 12.705
-100.923 83.7508 -4.35618 -153.77 84.5691 -149.332 5.64343 1.02499 1.71635 0.333929 -3.20895 0.573641 0.220833 -2.03182 0.770885 0.372705 8.47761 2.33792 -0.0 0.0 0.0 -0.0 0.0 0.0 6.60244e-14 5.07298e-13 1.37658e-13 74.864 22.2743 -1.26921 -10.2513 -4.29552 18.2736 -0.0779325 7.93907 1.12303 1.44183e-09 1.18851e-09 -3.73016e-09 2.46412e-09 2.05031e-09 -6.4572e-09 1.44184e-09 1.18851e-09 -3.73016e-09 7.73091 5.47488 0.417314 1.44183e-09 1.18851e-09 -3.73016e-09 2.90554 0.965183 0.102902 1.44184e-09 1.18851e-09 -3.73016e-09 10.2786 0.731801 0.0259123 1.44184e-09 1.18851e-09 -3.73015e-09 2.22167 -0.733487 -0.20892 6.5973e-14 5.07298e-13 1.3741e-13 -78.441 38.8045 -3.72689 14.7757 -7.59773 -27.1283 0.741544 -23.6878 3.53496 -2.34455e-11 -3.68594e-11 2.66263e-09 -7.47057e-11 -5.69701e-11 4.59939e-09 -2.34502e-11 -3.68587e-11 2.66266e-09 -7.73091 5.47488 -0.417314 -2.34466e-11 -3.68605e-11 2.66264e-09 -2.90554 0.965183 -0.102902 -2.34527e-11 -3.68609e-11 2.66264e-09 -10.2786 0.731801 -0.0259123 -2.34437e-11 -3.68598e-11 2.66263e-09 -2.22167 -0.733487 0.20892 -2.03217e-16 0.0 -3.88251e-19 7.63029 -10.3777 14.1419 -0.00582118 17.269 0.321039 -4.72562 -5.99896 -25.0961 2.03217e-16 0.0 3.88251e-19 4.35793 -18.1628 -13.4048 0.128224 24.2606 -0.47191 4.08254 -11.1833 12.47
